<svg width="34" height="34" viewBox="0 0 34 34" fill="none" xmlns="http://www.w3.org/2000/svg">
<path d="M18.9583 17L24.9305 11.0416C25.192 10.7801 25.339 10.4254 25.339 10.0555C25.339 9.68566 25.192 9.33094 24.9305 9.06941C24.669 8.80788 24.3143 8.66095 23.9444 8.66095C23.5745 8.66095 23.2198 8.80788 22.9583 9.06941L17 15.0416L11.0416 9.06941C10.7801 8.80788 10.4254 8.66095 10.0555 8.66095C9.68565 8.66095 9.33093 8.80788 9.0694 9.06941C8.80787 9.33094 8.66094 9.68566 8.66094 10.0555C8.66094 10.4254 8.80787 10.7801 9.0694 11.0416L15.0416 17L9.0694 22.9583C8.93922 23.0874 8.8359 23.241 8.76538 23.4103C8.69487 23.5795 8.65857 23.7611 8.65857 23.9444C8.65857 24.1278 8.69487 24.3093 8.76538 24.4785C8.8359 24.6478 8.93922 24.8014 9.0694 24.9305C9.19852 25.0607 9.35213 25.164 9.52138 25.2345C9.69063 25.305 9.87216 25.3413 10.0555 25.3413C10.2389 25.3413 10.4204 25.305 10.5896 25.2345C10.7589 25.164 10.9125 25.0607 11.0416 24.9305L17 18.9583L22.9583 24.9305C23.0874 25.0607 23.241 25.164 23.4103 25.2345C23.5795 25.305 23.761 25.3413 23.9444 25.3413C24.1277 25.3413 24.3093 25.305 24.4785 25.2345C24.6478 25.164 24.8014 25.0607 24.9305 24.9305C25.0607 24.8014 25.164 24.6478 25.2345 24.4785C25.305 24.3093 25.3413 24.1278 25.3413 23.9444C25.3413 23.7611 25.305 23.5795 25.2345 23.4103C25.164 23.241 25.0607 23.0874 24.9305 22.9583L18.9583 17Z" fill="black"/>
</svg>
